<?xml version="1.0" standalone="no"?>
<!DOCTYPE svg PUBLIC "-//W3C//DTD SVG 20010904//EN"
 "http://www.w3.org/TR/2001/REC-SVG-20010904/DTD/svg10.dtd">
<svg version="1.0" xmlns="http://www.w3.org/2000/svg"
 width="700.000000pt" height="700.000000pt" viewBox="0 0 700.000000 700.000000"
 preserveAspectRatio="xMidYMid meet">
<metadata>
Created by potrace 1.11, written by Peter Selinger 2001-2013
</metadata>
<g transform="translate(0.000000,700.000000) scale(0.100000,-0.100000)"
fill="#000000" stroke="none">
<path d="M3289 6966 c-2 -2 -40 -6 -84 -10 -80 -6 -105 -9 -200 -22 -99 -14
-141 -21 -250 -46 -49 -11 -98 -21 -108 -23 -64 -14 -312 -94 -422 -137 -297
-118 -648 -322 -900 -524 -99 -80 -371 -342 -453 -436 -229 -265 -441 -610
-572 -928 -23 -58 -48 -118 -55 -135 -31 -76 -97 -297 -126 -423 -26 -117 -40
-192 -54 -297 -3 -27 -8 -61 -11 -75 -27 -159 -26 -641 2 -840 15 -103 31
-200 45 -265 112 -527 322 -990 636 -1402 71 -93 81 -106 194 -232 160 -180
373 -368 585 -517 369 -258 834 -460 1264 -549 124 -25 278 -48 415 -62 155
-16 590 -8 725 12 138 21 293 48 325 56 22 6 49 13 60 15 11 2 29 6 41 8 28 6
157 43 214 63 25 8 50 16 55 17 11 2 12 2 190 72 218 85 524 254 720 397 322
235 633 556 849 874 329 486 532 1057 583 1643 9 110 10 481 1 590 -59 689
-320 1343 -755 1885 -94 118 -348 381 -439 455 -31 25 -63 52 -72 60 -9 9 -53
43 -97 75 -44 33 -82 62 -85 65 -8 9 -190 125 -270 172 -306 180 -680 323
-1030 394 -69 14 -138 28 -155 30 -16 2 -39 6 -50 8 -11 2 -56 7 -100 11 -44
4 -89 10 -100 12 -24 6 -510 14 -516 9z m453 -310 c53 -4 105 -9 116 -11 10
-2 43 -6 73 -10 470 -56 987 -261 1408 -559 255 -180 528 -451 722 -716 299
-408 513 -943 574 -1430 4 -30 9 -64 11 -75 22 -115 21 -538 0 -710 -12 -90
-19 -140 -31 -205 -8 -41 -17 -88 -20 -105 -9 -55 -86 -327 -111 -394 -91
-237 -155 -373 -254 -541 -48 -81 -145 -230 -172 -265 -292 -373 -531 -596
-868 -810 -341 -216 -772 -383 -1134 -441 -21 -3 -48 -8 -60 -10 -19 -4 -44
-7 -136 -19 -170 -22 -555 -23 -710 -1 -14 2 -52 7 -85 11 -33 4 -69 9 -80 11
-11 2 -33 7 -50 10 -27 4 -221 47 -268 59 -10 2 -32 9 -50 14 -18 6 -54 18
-82 26 -56 18 -179 62 -210 76 -11 4 -63 27 -115 49 -342 148 -708 404 -980
686 -272 281 -502 627 -640 959 -22 55 -45 109 -50 120 -42 97 -116 360 -145
513 -2 13 -6 31 -9 40 -5 19 -14 75 -22 142 -3 25 -7 58 -10 75 -8 63 -18 255
-18 365 0 331 52 653 157 980 121 373 349 777 606 1075 90 104 348 349 448
425 174 133 191 144 318 220 229 137 489 252 734 325 128 38 361 88 466 100
33 4 69 9 80 11 11 2 72 7 135 10 63 4 116 7 117 8 5 4 253 -2 345 -8z"/>
<path d="M4688 5175 c-2 -1 -52 -5 -113 -9 -257 -14 -517 -103 -745 -254 -99
-66 -286 -247 -354 -344 -211 -300 -308 -617 -308 -1007 -1 -354 90 -669 271
-933 69 -103 94 -132 191 -226 216 -211 514 -353 820 -390 76 -10 372 -9 445
1 102 14 129 18 145 22 8 2 29 7 47 10 133 22 400 104 570 175 l98 40 -3 393
c-3 409 0 440 41 502 40 61 94 85 253 113 l99 17 1 78 1 77 -666 0 -666 0 0
-80 0 -80 35 -1 c19 0 44 -2 55 -4 11 -2 45 -7 75 -10 226 -24 313 -83 335
-225 7 -41 7 -485 1 -552 -1 -16 -3 -46 -4 -68 -3 -54 -32 -81 -147 -136 -151
-72 -232 -89 -425 -88 -136 1 -179 5 -243 22 -505 138 -809 650 -810 1367 -1
104 11 313 17 324 2 3 7 31 10 61 11 88 63 287 101 384 137 350 397 578 709
625 447 66 773 -145 952 -618 28 -72 89 -264 95 -296 4 -17 13 -19 93 -20 l88
0 -7 430 c-7 392 -12 610 -14 626 -1 4 -38 6 -83 6 -92 -1 -88 2 -147 -104
l-24 -41 -96 48 c-111 55 -204 91 -311 119 -89 24 -124 29 -250 37 -52 3 -103
7 -112 8 -9 2 -18 3 -20 1z"/>
<path d="M1549 5106 c-1 -1 -2 -34 -4 -74 -2 -81 -4 -78 70 -86 192 -22 324
-82 363 -164 16 -34 17 -105 17 -982 0 -520 -4 -983 -8 -1030 -16 -171 -62
-340 -113 -422 -13 -20 -42 -55 -65 -78 -57 -57 -114 -84 -219 -107 -8 -2 -46
-3 -85 -3 -154 -1 -260 37 -347 122 l-48 48 15 37 c9 21 28 58 43 83 15 25 29
50 32 55 3 6 18 30 34 55 62 95 89 170 92 255 4 93 -13 140 -67 194 -57 56
-111 76 -209 76 -97 -1 -146 -20 -197 -78 -70 -80 -101 -187 -97 -327 9 -257
138 -471 353 -584 73 -38 164 -71 226 -81 22 -4 51 -8 65 -11 51 -8 237 -5
302 5 267 43 500 204 633 437 41 72 93 209 112 294 4 19 8 472 10 1005 2 647
7 988 14 1023 12 59 65 124 110 135 13 3 42 10 64 16 40 11 85 18 185 30 l54
6 1 76 0 76 -667 0 c-368 0 -669 -1 -669 -1z"/>
</g>
</svg>
